<svg xmlns="http://www.w3.org/2000/svg" width="487" height="352" viewBox="0 0 487 352">
  <defs>
    <style>
      .cls-1 {
        fill: #fff;
        fill-rule: evenodd;
      }
    </style>
  </defs>
  <path id="Shape_3_copy_4" data-name="Shape 3 copy 4" class="cls-1" d="M644,285,411,137s12.191-20.53,29-20c14.3,0.451,23.861,14.9,8,40-15.816,25.03-55.559,62.845-46,58s92.316-54.53,85-92-53.311-31.3-71-3C409.809,129.905,411,137,411,137ZM59.979,299.165C61.589,303.376,105.122,347,187,352c68.206,4.162,100-9,100-9s32.167-9.833,54-36c32.134-38.512,54.752-118.542,63-167,4.309-25.314,13.025-73.352,4-88-7.606-12.346-22.318-27.8-78-41a375,375,0,0,0-66-9c-17.927-.672-59.12-0.925-78,0-23.8,1.167-65.933,5.433-69,7s-0.071,2,7,2,48.054-1.679,58-2,60.161-.439,73,0c22.48,0.769,56.125,5.6,87,16,15.248,5.135,50.617,22.592,54,39,3,14.535-2.074,22.615-18,36a2.265,2.265,0,0,1-3,0c-1.2-.842-16.283-26.431-61-35a427.457,427.457,0,0,0-75-11c-4.333-.25-61.667-0.917-77,0S76.3,57.612,44,76c-3.785,2.155-5.285,5.983-21,1C12.555,73.688,4,63.583,3,63s-3-5.25-3,5,3.744,58.071,6,73,6.449,39.93,11,57c9.542,35.786,16.6,53.5,18,57s8.6,14.357,5-3S22.316,174.214,25,151s20.744-35.786,37-35,28.03,9,38,9,14,0.095,14,4,1,76.6,1,93,2.929,39.929,23,60,44.792,26,58,26,39.458-1.458,64-26,23-49.238,23-61V130c0-.929-1.208-2.071,13-4s72.628-10.814,94-27a166.767,166.767,0,0,0,16-14s-0.877.082-3,12c-4.808,26.988-25.875,90.429-37,111-11.694,21.623-28.375,49.1-47,66s-27.41,32.039-97,48c-6.992,1.6-31.195,3.294-46.479,2.806C82.028,321.821,55.107,286.423,59.979,299.165ZM199,133H158v93s-0.209,8.183,6,20c9.358,17.81,27.429,20,35,20m0-133h41v93s0.209,8.183-6,20c-9.358,17.81-27.428,20-35,20"/>
</svg>
